<svg width="211" height="143" viewBox="0 0 211 143" fill="none" xmlns="http://www.w3.org/2000/svg">
<path opacity="0.1" d="M7.17501 136.276V139.146L1.43445 138.514V136.276H7.17501Z" fill="white"/>
<path d="M11.8138 97.1266L44.8976 91.7109V123.219L13.4637 121.564L11.8138 97.1266Z" fill="#1D1F22"/>
<path opacity="0.05" d="M11.8138 97.1266L44.8976 91.7109V123.219L13.4637 121.564L11.8138 97.1266Z" fill="black"/>
<path d="M44.8988 91.7109L84.2843 94.6975L82.1047 122.117L44.8988 123.219V91.7109Z" fill="#1D1F22"/>
<path opacity="0.1" d="M44.8988 91.7109L84.2843 94.6975L82.1047 122.117L44.8988 123.219V91.7109Z" fill="black"/>
<path d="M56.9723 82.2583L44.8988 91.8751L84.1685 94.8616L90.5859 85.0202L56.9723 82.2583Z" fill="#1D1F22"/>
<path d="M0 86.7015L29.6761 83.0464L44.8994 91.7988L11.9355 97.2252L0 86.7015Z" fill="#1D1F22"/>
<path d="M51.987 99.9818V142.912L36.5519 141.319L29.8378 140.629L27.7924 140.414L21.0826 139.721L11.8138 138.764V97.2251L44.7594 99.4821L51.987 99.9818Z" fill="#1D1F22"/>
<path d="M84.2836 94.8618V136.678L71.9105 139.066L65.8929 140.228L51.9875 142.912V100.033L84.2836 94.8618Z" fill="#1D1F22"/>
<path opacity="0.05" d="M84.2836 94.8618V136.678L71.9105 139.066L65.8929 140.228L51.9875 142.912V100.033L84.2836 94.8618Z" fill="black"/>
<path d="M0 106.134L11.9041 97.2251L51.9888 99.9428L46.088 109.828L0 106.134Z" fill="#1D1F22"/>
<path opacity="0.1" d="M0 106.134L11.9041 97.2251L51.9888 99.9428L46.088 109.828L0 106.134Z" fill="white"/>
<path d="M84.1359 94.8618L51.9875 100.15L62.4509 109.828L96.887 103.863L84.1359 94.8618Z" fill="#1D1F22"/>
<path opacity="0.1" d="M84.1359 94.8618L51.9875 100.15L62.4509 109.828L96.887 103.863L84.1359 94.8618Z" fill="white"/>
<path opacity="0.1" d="M71.6814 138.614L66.1675 139.761V134.083L71.3324 132.672L71.6814 138.614Z" fill="white"/>
<path opacity="0.1" d="M78.7702 137.826L73.2562 138.974V130.145L78.4211 128.733L78.7702 137.826Z" fill="white"/>
<path fill-rule="evenodd" clip-rule="evenodd" d="M24.9754 119.061C24.2951 121.009 22.1871 122.43 19.692 122.43C18.5962 122.43 17.5751 122.156 16.7168 121.684C17.2446 123.481 18.9062 124.793 20.8742 124.793C23.2669 124.793 25.2066 122.853 25.2066 120.461C25.2066 119.971 25.1252 119.5 24.9754 119.061Z" fill="#F1F2F3"/>
<mask id="mask0_7434_13917" style="mask-type:alpha" maskUnits="userSpaceOnUse" x="16" y="119" width="10" height="6">
<path fill-rule="evenodd" clip-rule="evenodd" d="M24.9754 119.061C24.2951 121.009 22.1871 122.43 19.692 122.43C18.5962 122.43 17.5751 122.156 16.7168 121.684C17.2446 123.481 18.9062 124.793 20.8742 124.793C23.2669 124.793 25.2066 122.853 25.2066 120.461C25.2066 119.971 25.1252 119.5 24.9754 119.061Z" fill="white"/>
</mask>
<g mask="url(#mask0_7434_13917)">
<circle cx="22.0543" cy="124.007" r="1.57542" fill="#1D1F22"/>
<path d="M17.0646 123.912L16.9996 123.912L19.2008 124.85C19.7284 125.074 20.2922 125.19 20.8586 125.19L21.6157 125.19C22.7686 125.19 23.8022 124.522 24.2777 123.468L24.2777 123.318C24.2777 123.246 24.225 123.185 24.1548 123.174C23.7237 123.109 23.2864 123.147 22.8777 123.285L22.4992 123.412L21.3185 123.707C20.7795 123.842 20.2139 123.848 19.6653 123.724L19.2042 123.621C18.7635 123.521 18.3071 123.563 17.8983 123.74C17.636 123.853 17.3525 123.912 17.0646 123.912Z" fill="#4D9AF5"/>
</g>
<path fill-rule="evenodd" clip-rule="evenodd" d="M35.9393 119.776C36.425 121.809 38.4249 123.436 40.9411 123.647C41.9969 123.735 43.0045 123.562 43.8788 123.19C43.2944 124.892 41.6802 126.115 39.7802 126.115C37.3875 126.115 35.4478 124.175 35.4478 121.782C35.4478 121.059 35.6254 120.376 35.9393 119.776Z" fill="#F1F2F3"/>
<mask id="mask1_7434_13917" style="mask-type:alpha" maskUnits="userSpaceOnUse" x="35" y="119" width="10" height="8">
<path fill-rule="evenodd" clip-rule="evenodd" d="M36.2406 119.28C36.3733 121.771 38.4355 123.751 40.96 123.751C42.1318 123.751 43.2039 123.324 44.0298 122.618C43.64 124.61 41.8846 126.114 39.7781 126.114C37.3854 126.114 35.4457 124.174 35.4457 121.782C35.4457 120.85 35.7399 119.986 36.2406 119.28Z" fill="white"/>
</mask>
<g mask="url(#mask1_7434_13917)">
<circle cx="1.57542" cy="1.57542" r="1.57542" transform="matrix(-1 0 0 1 40.1733 123.75)" fill="#1D1F22"/>
<path d="M41.9037 125.327L42.5017 125.351C43.3392 125.385 44.0005 126.074 44.0005 126.912H40.4498C39.5603 126.912 38.6869 126.675 37.9197 126.225L35.0005 124.512C35.0005 123.799 35.7707 123.352 36.3897 123.706L38.0331 124.645C38.3394 124.82 38.686 124.912 39.0388 124.912H39.9071C40.2994 124.912 40.6883 124.984 41.0547 125.124L41.2116 125.184C41.433 125.269 41.6668 125.317 41.9037 125.327Z" fill="#4D9AF5"/>
</g>
<path fill-rule="evenodd" clip-rule="evenodd" d="M35.4049 132.205C34.1879 129.969 31.9486 128.414 29.3158 128.275C26.6793 128.137 24.2859 129.452 22.8413 131.552C23.9118 129.038 26.4684 127.337 29.3561 127.489C32.2403 127.641 34.6018 129.596 35.4049 132.205Z" fill="#F1F2F3"/>
<path fill-rule="evenodd" clip-rule="evenodd" d="M36.3492 132.428C36.1143 132.201 35.7799 132.099 35.4538 132.186C35.1352 132.272 34.9003 132.518 34.8055 132.822C34.8416 132.483 35.0814 132.184 35.4307 132.091C35.7868 131.995 36.1507 132.141 36.3492 132.428Z" fill="#F1F2F3"/>
<path fill-rule="evenodd" clip-rule="evenodd" d="M22.0609 131.574C22.3439 131.423 22.6871 131.414 22.9749 131.58C23.267 131.749 23.4309 132.057 23.4374 132.383C23.5001 132.04 23.3458 131.679 23.0262 131.494C22.7105 131.312 22.3265 131.355 22.0609 131.574Z" fill="#F1F2F3"/>
<path d="M114.956 39.0204L114.958 39.022C114.961 39.0273 114.961 39.031 114.963 39.0363C114.985 39.0936 115.022 39.1392 115.067 39.1743C115.102 39.2014 115.145 39.2217 115.191 39.234C116.114 39.4528 117.086 39.4594 118.052 39.2786C118.06 39.2776 118.064 39.2807 118.069 39.2781C118.077 39.2771 118.084 39.2723 118.091 39.2713C119.985 38.9095 121.856 37.8279 123.29 36.1715C125.503 33.6188 125.06 31.6534 124.125 29.2057L125.778 27.2963C125.903 27.1527 125.891 26.9398 125.752 26.8181C125.602 26.6847 125.401 26.7148 125.276 26.8585L123.623 28.7679C121.079 28.1762 119.076 28.0091 116.862 30.564C114.685 33.0701 113.938 36.3866 114.956 39.0203L114.956 39.0204ZM115.194 36.519L116.9 36.5167L115.424 38.2206C115.272 37.6753 115.196 37.1042 115.194 36.519L115.194 36.519ZM115.671 33.8372L119.228 33.8331L117.492 35.837L115.212 35.8408C115.276 35.1748 115.429 34.5001 115.671 33.8372L115.671 33.8372ZM117.238 31.1587L121.551 31.152L119.816 33.1538L115.968 33.1592C116.297 32.4617 116.718 31.7852 117.238 31.1587L117.238 31.1587ZM120.845 37.4146L120.318 33.5918L122.055 31.5879L122.648 35.8759C122.101 36.4816 121.492 36.9945 120.846 37.4146L120.845 37.4146ZM118.306 38.5392L117.992 36.2734L119.728 34.2695L120.217 37.8041C119.599 38.1375 118.955 38.386 118.306 38.5392L118.306 38.5392ZM115.926 38.6586L117.404 36.9526L117.639 38.6516C117.061 38.7309 116.487 38.7323 115.926 38.6587L115.926 38.6586ZM123.23 35.1693L122.642 30.9089L123.614 29.786C124.332 31.7316 124.603 33.2787 123.23 35.1693L123.23 35.1693ZM123.113 29.3519L122.141 30.4748L117.854 30.4816C119.536 28.8524 121.099 28.9079 123.113 29.3519L123.113 29.3519Z" fill="#1D1F22"/>
<path d="M117.227 56.736L117.225 56.7379C117.219 56.7401 117.216 56.7403 117.21 56.7424C117.152 56.7604 117.104 56.7946 117.067 56.8377C117.038 56.8709 117.015 56.9132 117 56.9587C116.729 57.8671 116.667 58.8373 116.792 59.8127C116.793 59.8201 116.79 59.824 116.792 59.8295C116.793 59.8369 116.797 59.8442 116.797 59.8516C117.051 61.7631 118.024 63.693 119.596 65.2183C122.019 67.573 124.006 67.2435 126.503 66.4487L128.315 68.2079C128.451 68.3408 128.665 68.3409 128.794 68.2091C128.936 68.0673 128.917 67.8648 128.781 67.7319L126.969 65.9726C127.704 63.4664 127.985 61.4767 125.561 59.1203C123.183 56.8044 119.914 55.8696 117.227 56.7361L117.227 56.736ZM119.71 57.1162L119.615 58.8198L117.998 57.2483C118.551 57.128 119.126 57.0849 119.71 57.1161L119.71 57.1162ZM122.361 57.7452L122.162 61.2968L120.26 59.4489L120.386 57.1723C121.048 57.2741 121.713 57.4654 122.361 57.7452L122.361 57.7452ZM124.945 59.4623L124.707 63.7683L122.807 61.9222L123.021 58.0804C123.698 58.4483 124.35 58.9072 124.945 59.4623L124.945 59.4623ZM118.494 62.7073L122.341 62.3985L124.243 64.2464L119.928 64.5946C119.354 64.0141 118.877 63.3762 118.494 62.7074L118.494 62.7073ZM117.516 60.1074L119.796 59.9232L121.698 61.7711L118.141 62.0574C117.844 61.4214 117.632 60.7641 117.516 60.1075L117.516 60.1074ZM117.533 57.7246L119.152 59.2979L117.442 59.4356C117.396 58.8537 117.427 58.2808 117.532 57.7246L117.533 57.7246ZM120.6 65.2163L124.887 64.8715L125.953 65.9061C123.969 66.5117 122.409 66.6938 120.6 65.2163L120.6 65.2163ZM126.415 65.4303L125.349 64.3956L125.586 60.1158C127.117 61.8878 126.973 63.4448 126.415 65.4302L126.415 65.4303Z" fill="#1D1F22"/>
<path d="M149.658 42.5933L149.658 42.5958C149.654 42.6007 149.651 42.6029 149.648 42.6077C149.61 42.6552 149.589 42.7103 149.582 42.767C149.577 42.8108 149.581 42.8585 149.595 42.9046C149.877 43.8093 150.368 44.6485 151.017 45.3873C151.022 45.3931 151.021 45.3983 151.026 45.4015C151.031 45.4073 151.039 45.4109 151.043 45.4167C152.322 46.8603 154.207 47.9168 156.363 48.3033C159.688 48.9022 161.152 47.5183 162.779 45.4638L165.264 45.91C165.452 45.944 165.629 45.8249 165.662 45.6433C165.701 45.4465 165.572 45.289 165.385 45.255L162.899 44.8087C162.108 42.3192 161.229 40.5123 157.902 39.9131C154.635 39.3215 151.403 40.3729 149.658 42.5933L149.658 42.5933ZM151.93 41.5205L152.804 42.9864L150.584 42.5868C150.976 42.1779 151.428 41.8212 151.93 41.5204L151.93 41.5205ZM154.48 40.5611L156.3 43.6173L153.69 43.1476L152.522 41.1892C153.128 40.9041 153.786 40.6911 154.48 40.5611L154.48 40.5611ZM157.583 40.5405L159.791 44.245L157.184 43.7756L155.214 40.4703C155.982 40.3967 156.778 40.4131 157.583 40.5405L157.583 40.5405ZM154.046 46.8367L157.064 44.431L159.673 44.9006L156.29 47.6006C155.49 47.4398 154.737 47.1776 154.046 46.8367L154.046 46.8367ZM151.782 45.2272L153.57 43.8003L156.18 44.27L153.39 46.495C152.788 46.1339 152.245 45.707 151.782 45.2273L151.782 45.2272ZM150.464 43.2421L152.686 43.642L151.345 44.7116C150.982 44.2549 150.688 43.7623 150.464 43.2421L150.464 43.2421ZM157.195 47.7406L160.557 45.0589L162.019 45.3214C160.713 46.9319 159.521 47.9547 157.195 47.7406L157.195 47.7406ZM162.136 44.6686L160.674 44.4061L158.479 40.7243C160.739 41.3384 161.489 42.7102 162.136 44.6686L162.136 44.6686Z" fill="#1D1F22"/>
<path opacity="0.3" d="M84.4472 51.2631C84.4416 51.2656 84.4338 51.2677 84.4295 51.2709C84.4278 51.2724 84.4266 51.2717 84.4249 51.2732C84.4232 51.2746 84.4225 51.2759 84.4215 51.2761C84.4174 51.2803 84.4133 51.2845 84.4082 51.2889C84.4034 51.2943 84.3974 51.2991 84.3938 51.3052C84.3917 51.3088 84.3902 51.3113 84.3878 51.314C84.3871 51.3152 84.3852 51.3157 84.3854 51.3167C84.0518 51.933 83.8613 52.6202 83.8044 53.3343C83.8034 53.3387 83.8013 53.3423 83.8013 53.3464C83.8007 53.3517 83.8022 53.3575 83.8028 53.3635C83.6978 54.7668 84.1146 56.2719 85.0263 57.5635C86.2885 59.3497 88.0619 60.1035 90.2972 59.8092L91.4125 61.3898C91.4528 61.4469 91.5339 61.4612 91.592 61.4209C91.6377 61.3891 91.6562 61.3337 91.6429 61.2838C91.639 61.2694 91.6325 61.2567 91.6237 61.2436L90.5077 59.6643C91.2066 58.3396 91.3923 57.0465 91.0585 55.8009C90.8933 55.1844 90.602 54.5801 90.1849 53.9889C88.8014 52.0304 86.5624 50.9569 84.481 51.2529C84.479 51.2534 84.4783 51.2547 84.4761 51.2542L84.4664 51.2568C84.46 51.2565 84.4537 51.2602 84.4472 51.263L84.4472 51.2631ZM86.4157 51.6156L85.9759 53.2454L84.7301 51.4816C85.2897 51.4284 85.8593 51.4745 86.4157 51.6156L86.4157 51.6156ZM84.5191 51.6287L85.7649 53.3925L84.0691 53.2438C84.1256 52.6759 84.277 52.131 84.5191 51.6287L84.5191 51.6287ZM84.0506 53.4978L85.9569 53.6653L87.2697 55.5233L84.2329 55.2574C84.0815 54.669 84.0205 54.0751 84.0505 53.4978L84.0506 53.4978ZM89.8994 54.1219L88.9859 57.508L87.6731 55.65L88.492 52.6154C89.0272 53.0124 89.5143 53.5025 89.9258 54.0726C89.9147 54.0858 89.9045 54.102 89.8994 54.1219L89.8994 54.1219ZM85.2515 57.3445C85.2321 57.3425 85.2134 57.3465 85.1954 57.3534C84.796 56.7739 84.4981 56.1528 84.3055 55.5199L87.462 55.7971L88.7748 57.6551L85.2515 57.3445ZM85.3836 57.6117L88.9664 57.9259L90.1295 59.5719C88.1192 59.8028 86.5621 59.1589 85.3836 57.6116L85.3836 57.6117ZM90.3419 59.4266L89.1796 57.7794L90.1089 54.3355C91.1718 55.962 91.2499 57.6322 90.342 59.4267L90.3419 59.4266ZM88.2692 52.458C88.2682 52.4583 88.2682 52.4583 88.2684 52.4593L87.481 55.3771L86.1679 53.5181L86.6631 51.6861C87.2209 51.8557 87.7632 52.1159 88.2691 52.4579L88.2692 52.458Z" fill="#1D1F22"/>
<path opacity="0.3" d="M109.712 95.4118C109.71 95.4176 109.706 95.4248 109.706 95.4302C109.706 95.4324 109.704 95.4329 109.704 95.4351C109.704 95.4374 109.705 95.4387 109.704 95.4396C109.705 95.4454 109.705 95.4513 109.705 95.458C109.706 95.4652 109.705 95.4729 109.707 95.4796C109.709 95.4837 109.709 95.4864 109.71 95.49C109.71 95.4913 109.709 95.4931 109.71 95.4936C109.944 96.1543 110.326 96.7564 110.818 97.2775C110.82 97.2811 110.821 97.2851 110.825 97.2878C110.828 97.2919 110.833 97.2946 110.838 97.2982C111.809 98.317 113.205 99.0169 114.775 99.2066C116.946 99.4677 118.694 98.6575 119.975 96.8017L121.895 97.034C121.965 97.0424 122.03 96.9919 122.039 96.9218C122.046 96.8665 122.017 96.8156 121.971 96.792C121.958 96.7853 121.944 96.7816 121.928 96.7793L120.008 96.5483C119.494 95.1417 118.659 94.1369 117.511 93.5493C116.943 93.2585 116.3 93.0695 115.581 92.9826C113.201 92.6959 110.903 93.6372 109.727 95.3799C109.726 95.3817 109.727 95.3831 109.725 95.3844L109.72 95.3934C109.716 95.3978 109.714 95.405 109.712 95.4118L109.712 95.4118ZM111.293 94.1877L112.208 95.6068L110.064 95.3484C110.4 94.8976 110.816 94.5059 111.293 94.1877L111.293 94.1877ZM110.031 95.6036L112.175 95.862L110.928 97.0203C110.544 96.5977 110.242 96.12 110.031 95.6036L110.031 95.6036ZM111.104 97.2044L112.506 95.9024L114.765 96.1742L112.532 98.2489C111.994 97.9668 111.512 97.6138 111.104 97.2045L111.104 97.2044ZM115.489 93.2836L117.388 96.2316L115.13 95.9598L113.427 93.3177C114.081 93.1867 114.771 93.154 115.47 93.2309C115.472 93.248 115.477 93.2664 115.489 93.2836L115.489 93.2836ZM114.763 98.8927C114.749 98.9057 114.739 98.9223 114.732 98.9402C114.034 98.848 113.374 98.6526 112.775 98.3711L115.097 96.215L117.356 96.4869L114.763 98.8927ZM115.05 98.9738L117.685 96.5263L119.686 96.767C118.51 98.4133 116.988 99.1368 115.05 98.9737L115.05 98.9738ZM119.721 96.512L117.719 96.2699L115.788 93.2714C117.707 93.5733 118.998 94.6352 119.721 96.512L119.721 96.512ZM113.161 93.3774C113.161 93.3783 113.161 93.3783 113.161 93.3788L114.798 95.9194L112.539 95.6471L111.511 94.0514C112.011 93.7513 112.568 93.5234 113.161 93.3774L113.161 93.3774Z" fill="#1D1F22"/>
<path opacity="0.3" d="M199.663 108.352C199.667 108.357 199.671 108.364 199.676 108.367C199.678 108.368 199.677 108.37 199.679 108.371C199.681 108.372 199.682 108.373 199.683 108.374C199.688 108.376 199.693 108.379 199.699 108.383C199.705 108.386 199.712 108.391 199.718 108.392C199.722 108.393 199.725 108.394 199.728 108.396C199.73 108.396 199.731 108.398 199.732 108.397C200.415 108.552 201.128 108.549 201.831 108.41C201.836 108.41 201.84 108.411 201.844 108.41C201.849 108.409 201.854 108.406 201.86 108.404C203.239 108.125 204.575 107.316 205.572 106.089C206.949 104.39 207.195 102.479 206.306 100.407L207.525 98.905C207.57 98.8507 207.561 98.7688 207.507 98.7238C207.464 98.6884 207.406 98.6855 207.361 98.7119C207.348 98.7195 207.338 98.7292 207.328 98.7412L206.109 100.243C204.645 99.9291 203.35 100.101 202.241 100.759C201.693 101.085 201.19 101.529 200.734 102.091C199.223 103.953 198.796 106.399 199.644 108.323C199.646 108.324 199.647 108.325 199.647 108.327L199.652 108.336C199.654 108.342 199.659 108.347 199.663 108.352L199.663 108.352ZM199.47 106.362L201.158 106.344L199.797 108.021C199.594 107.496 199.484 106.936 199.47 106.362L199.47 106.362ZM199.996 108.184L201.356 106.507L201.672 108.18C201.111 108.279 200.545 108.281 199.996 108.184L199.996 108.184ZM201.922 108.129L201.567 106.248L203 104.482L203.566 107.477C203.041 107.782 202.486 108.002 201.922 108.129L201.922 108.129ZM200.939 102.33L204.446 102.292L203.013 104.059L199.87 104.092C200.107 103.47 200.447 102.868 200.884 102.318C200.9 102.325 200.918 102.33 200.939 102.33L200.939 102.33ZM205.3 105.931C205.303 105.95 205.312 105.967 205.324 105.983C204.874 106.524 204.357 106.979 203.8 107.336L203.212 104.222L204.645 102.455L205.3 105.931ZM205.521 105.732L204.853 102.198L206.123 100.632C206.89 102.505 206.691 104.178 205.521 105.732L205.521 105.732ZM205.926 100.467L204.655 102.032L201.088 102.07C202.366 100.607 203.952 100.079 205.926 100.467L205.926 100.467ZM199.779 104.35C199.779 104.35 199.779 104.35 199.78 104.35L202.802 104.318L201.368 106.085L199.471 106.105C199.483 105.522 199.586 104.929 199.779 104.35L199.779 104.35Z" fill="#1D1F22"/>
<path opacity="0.3" d="M120.196 3.84167C120.192 3.8468 120.187 3.85274 120.185 3.8578C120.184 3.85996 120.183 3.86003 120.182 3.86219C120.182 3.86434 120.182 3.86576 120.181 3.8665C120.18 3.87223 120.179 3.87796 120.177 3.88443C120.176 3.89158 120.173 3.89879 120.173 3.90587C120.173 3.91011 120.174 3.91294 120.173 3.91651C120.173 3.91793 120.172 3.91941 120.172 3.92009C120.222 4.6192 120.43 5.30116 120.765 5.93425C120.767 5.93842 120.767 5.94267 120.769 5.9461C120.772 5.95094 120.776 5.95498 120.78 5.95975C121.444 7.20002 122.604 8.24608 124.067 8.84639C126.09 9.67574 127.991 9.35973 129.719 7.91136L131.509 8.64613C131.573 8.67266 131.649 8.64122 131.677 8.57607C131.698 8.52468 131.684 8.46799 131.646 8.43304C131.635 8.42296 131.623 8.41578 131.608 8.40941L129.819 7.67607C129.698 6.18331 129.16 4.99267 128.21 4.12095C127.739 3.68949 127.169 3.336 126.5 3.06119C124.281 2.15157 121.816 2.44784 120.219 3.81499C120.217 3.81648 120.217 3.81789 120.215 3.8187L120.209 3.82613C120.203 3.82924 120.2 3.83579 120.196 3.84166L120.196 3.84167ZM122.046 3.08237L122.55 4.69349L120.552 3.87419C120.995 3.52888 121.501 3.26197 122.046 3.08237L122.046 3.08237ZM120.453 4.11159L122.451 4.9309L120.94 5.71574C120.683 5.2063 120.518 4.66533 120.453 4.11157L120.453 4.11159ZM121.061 5.94004L122.759 5.05791L124.864 5.92075L122.159 7.32663C121.716 6.91155 121.345 6.44321 121.061 5.9401L121.061 5.94004ZM126.33 3.32669L127.378 6.67386L125.272 5.81102L124.334 2.81127C124.999 2.85884 125.673 3.01082 126.326 3.27088C126.324 3.288 126.324 3.30713 126.33 3.32666L126.33 3.32669ZM124.139 8.54075C124.122 8.54942 124.108 8.56286 124.097 8.57831C123.448 8.30384 122.864 7.93975 122.361 7.50918L125.173 6.04843L127.278 6.91127L124.139 8.54075ZM124.394 8.69526L127.585 7.03688L129.45 7.80118C127.878 9.07525 126.219 9.36787 124.394 8.69517L124.394 8.69526ZM129.552 7.56454L127.687 6.79883L126.622 3.39445C128.392 4.19608 129.354 5.56322 129.552 7.56461L129.552 7.56454ZM124.062 2.79806C124.061 2.79881 124.061 2.79881 124.062 2.79948L124.964 5.68395L122.858 4.82044L122.292 3.00901C122.854 2.85267 123.451 2.78102 124.062 2.798L124.062 2.79806Z" fill="#1D1F22"/>
<path opacity="0.3" d="M54.5037 66.5696C54.506 66.5753 54.5079 66.5831 54.511 66.5875C54.5124 66.5893 54.5117 66.5905 54.5131 66.5922C54.5146 66.594 54.5158 66.5947 54.516 66.5957C54.5201 66.5999 54.5241 66.6041 54.5284 66.6093C54.5337 66.6143 54.5382 66.6205 54.5442 66.6242C54.5478 66.6265 54.5502 66.628 54.5529 66.6304C54.5541 66.6312 54.5545 66.6332 54.5555 66.6329C55.162 66.9842 55.8433 67.1944 56.5555 67.272C56.5598 67.273 56.5634 67.2753 56.5675 67.2753C56.5728 67.2761 56.5786 67.2748 56.5847 67.2744C57.9843 67.4198 59.5008 67.0466 60.8182 66.1726C62.6401 64.9624 63.4448 63.2115 63.215 60.9687L64.8271 59.8994C64.8854 59.8608 64.902 59.7802 64.8635 59.7209C64.833 59.6743 64.7781 59.6542 64.7278 59.6661C64.7133 59.6695 64.7005 59.6757 64.6871 59.684L63.0762 60.754C61.7724 60.0172 60.4852 59.7943 59.2304 60.092C58.6094 60.2393 57.9969 60.5131 57.3939 60.913C55.3963 62.2394 54.2586 64.4465 54.4945 66.5356C54.495 66.5375 54.4962 66.5383 54.4957 66.5405L54.498 66.5503C54.4975 66.5566 54.501 66.563 54.5036 66.5697L54.5037 66.5696ZM54.9129 64.6121L56.5293 65.0987L54.7303 66.2931C54.6933 65.7322 54.7557 65.1642 54.9129 64.6121L54.9129 64.6121ZM54.8713 66.5083L56.6703 65.3139L56.4726 67.0047C55.9066 66.9318 55.3664 66.7648 54.8712 66.5083L54.8713 66.5083ZM56.7261 67.0306L56.9485 65.1298L58.8436 63.8712L58.4901 66.8991C57.8977 67.0334 57.3022 67.0773 56.7261 67.0307L56.7261 67.0306ZM57.5187 61.2022L60.877 62.213L58.9818 63.4716L55.9722 62.5656C56.3844 62.042 56.8884 61.5693 57.4701 61.1744C57.483 61.1858 57.4989 61.1965 57.5186 61.2022L57.5187 61.2022ZM60.6058 65.9412C60.6032 65.9604 60.6067 65.9793 60.6131 65.9975C60.0223 66.38 59.3928 66.6599 58.7547 66.8341L59.1228 63.6869L61.0179 62.4282L60.6058 65.9412ZM60.8767 65.8168L61.2941 62.2445L62.973 61.1294C63.1458 63.1456 62.4572 64.6834 60.8766 65.8168L60.8767 65.8168ZM62.8339 60.9129L61.1538 62.0273L57.7382 60.999C59.3947 59.9834 61.0665 59.9535 62.834 60.9129L62.8339 60.9129ZM55.8084 62.7837C55.8087 62.7847 55.8087 62.7847 55.8096 62.7845L58.7035 63.6558L56.8074 64.9147L54.9905 64.3669C55.1761 63.8142 55.4519 63.2796 55.8083 62.7838L55.8084 62.7837Z" fill="#1D1F22"/>
<path opacity="0.3" d="M97.2049 17.6765C97.2072 17.6822 97.2091 17.69 97.2122 17.6945C97.2136 17.6962 97.2129 17.6974 97.2143 17.6992C97.2157 17.7009 97.2169 17.7016 97.2172 17.7026C97.2212 17.7068 97.2253 17.711 97.2296 17.7162C97.2349 17.7212 97.2394 17.7274 97.2454 17.7311C97.249 17.7334 97.2514 17.7349 97.254 17.7374C97.2552 17.7381 97.2557 17.7401 97.2567 17.7399C97.8631 18.0911 98.5445 18.3013 99.2567 18.3789C99.261 18.3799 99.2646 18.3822 99.2687 18.3823C99.274 18.3831 99.2798 18.3817 99.2858 18.3813C100.685 18.5268 102.202 18.1535 103.519 17.2795C105.341 16.0694 106.146 14.3185 105.916 12.0756L107.528 11.0064C107.587 10.9677 107.603 10.8871 107.565 10.8279C107.534 10.7812 107.479 10.7611 107.429 10.773C107.415 10.7765 107.402 10.7826 107.388 10.791L105.777 11.861C104.474 11.1241 103.186 10.9012 101.932 11.1989C101.311 11.3462 100.698 11.62 100.095 12.0199C98.0975 13.3464 96.9598 15.5534 97.1957 17.6425C97.1962 17.6445 97.1974 17.6452 97.1969 17.6474L97.1992 17.6572C97.1986 17.6635 97.2022 17.67 97.2048 17.6766L97.2049 17.6765ZM97.6141 15.7191L99.2305 16.2057L97.4315 17.4C97.3945 16.8391 97.4569 16.2712 97.6141 15.719L97.6141 15.7191ZM97.5724 17.6152L99.3715 16.4209L99.1738 18.1116C98.6078 18.0388 98.0675 17.8717 97.5724 17.6152L97.5724 17.6152ZM99.4272 18.1375L99.6496 16.2368L101.545 14.9781L101.191 18.006C100.599 18.1403 100.003 18.1843 99.4272 18.1376L99.4272 18.1375ZM100.22 12.3091L103.578 13.3199L101.683 14.5786L98.6734 13.6725C99.0856 13.149 99.5896 12.6762 100.171 12.2813C100.184 12.2927 100.2 12.3035 100.22 12.3092L100.22 12.3091ZM103.307 17.0481C103.304 17.0674 103.308 17.0862 103.314 17.1044C102.723 17.4869 102.094 17.7668 101.456 17.941L101.824 14.7938L103.719 13.5352L103.307 17.0481ZM103.578 16.9238L103.995 13.3514L105.674 12.2363C105.847 14.2525 105.158 15.7904 103.578 16.9238L103.578 16.9238ZM105.535 12.0198L103.855 13.1342L100.439 12.1059C102.096 11.0903 103.768 11.0604 105.535 12.0198L105.535 12.0198ZM98.5096 13.8907C98.5098 13.8917 98.5098 13.8917 98.5108 13.8914L101.405 14.7628L99.5086 16.0216L97.6917 15.4738C97.8773 14.9212 98.153 14.3865 98.5095 13.8907L98.5096 13.8907Z" fill="#1D1F22"/>
<path opacity="0.3" d="M175.404 21.4671C175.404 21.4732 175.403 21.4812 175.404 21.4865C175.405 21.4886 175.404 21.4895 175.405 21.4916C175.405 21.4937 175.406 21.4949 175.406 21.4959C175.408 21.5013 175.41 21.5068 175.412 21.5132C175.415 21.5198 175.417 21.5272 175.421 21.5329C175.424 21.5364 175.426 21.5387 175.427 21.542C175.428 21.5431 175.428 21.5451 175.429 21.5453C175.858 22.0991 176.41 22.5506 177.04 22.8908C177.044 22.8934 177.046 22.8968 177.05 22.8984C177.055 22.9012 177.061 22.9021 177.066 22.904C178.308 23.5661 179.854 23.7917 181.403 23.4785C183.547 23.0439 184.952 21.7253 185.584 19.5611L187.48 19.1781C187.549 19.1642 187.595 19.0958 187.581 19.0264C187.57 18.9717 187.527 18.9324 187.476 18.9245C187.461 18.9222 187.447 18.9231 187.432 18.9258L185.536 19.31C184.606 18.1362 183.498 17.4447 182.223 17.2477C181.593 17.1502 180.922 17.173 180.213 17.3163C177.863 17.7923 175.977 19.4081 175.409 21.4321C175.408 21.4341 175.409 21.4352 175.408 21.4371L175.406 21.447C175.404 21.4527 175.404 21.46 175.404 21.4671L175.404 21.4671ZM176.521 19.8081L177.835 20.8678L175.718 21.2964C175.896 20.7628 176.167 20.2602 176.521 19.808L176.521 19.8081ZM175.768 21.5488L177.884 21.1203L177.064 22.612C176.567 22.3312 176.13 21.9729 175.768 21.5488L175.768 21.5488ZM177.289 22.7314L178.211 21.0545L180.441 20.6027L178.973 23.2743C178.374 23.1755 177.805 22.9918 177.289 22.7315L177.289 22.7314ZM180.219 17.6312L182.949 19.8328L180.72 20.2847L178.273 18.3114C178.852 17.9818 179.497 17.7337 180.185 17.5871C180.193 17.6026 180.203 17.6185 180.219 17.6312L180.219 17.6312ZM181.294 23.1841C181.284 23.201 181.28 23.2197 181.279 23.239C180.588 23.3707 179.899 23.3928 179.242 23.3137L180.769 20.5371L182.999 20.0853L181.294 23.1841ZM181.591 23.171L183.324 20.0192L185.299 19.6188C184.7 21.5515 183.482 22.7166 181.591 23.1709L181.591 23.171ZM185.252 19.3658L183.276 19.7651L180.499 17.5257C182.417 17.2091 183.976 17.8112 185.252 19.3659L185.252 19.3658ZM178.039 18.4518C178.039 18.4528 178.039 18.4528 178.04 18.453L180.393 20.3504L178.162 20.8021L176.685 19.6101C177.065 19.1681 177.522 18.7768 178.039 18.4518L178.039 18.4518Z" fill="#1D1F22"/>
<path opacity="0.3" d="M184.293 61.5589C184.288 61.5628 184.281 61.5669 184.278 61.5712C184.277 61.5731 184.275 61.5727 184.274 61.5746C184.273 61.5765 184.273 61.5779 184.272 61.5784C184.269 61.5835 184.266 61.5886 184.262 61.5943C184.259 61.6008 184.255 61.6069 184.253 61.6138C184.252 61.6179 184.251 61.6206 184.249 61.6239C184.249 61.6252 184.247 61.6262 184.248 61.6271C184.091 62.3102 184.091 63.0232 184.227 63.7266C184.227 63.7311 184.226 63.7352 184.227 63.7391C184.228 63.7444 184.231 63.7496 184.233 63.7552C184.507 65.1355 185.311 66.4745 186.535 67.4755C188.228 68.8594 190.139 69.1119 192.214 68.2308L193.711 69.4559C193.765 69.5001 193.847 69.4923 193.892 69.4379C193.928 69.3951 193.931 69.3367 193.905 69.2922C193.897 69.2793 193.888 69.2689 193.876 69.2586L192.378 68.0349C192.698 66.5717 192.531 65.276 191.877 64.1649C191.553 63.615 191.11 63.1104 190.55 62.6523C188.694 61.1347 186.249 60.6986 184.323 61.5401C184.321 61.5411 184.321 61.5425 184.318 61.5427L184.31 61.5478C184.304 61.5492 184.298 61.5544 184.293 61.5589L184.293 61.5589ZM186.284 61.3726L186.296 63.0607L184.624 61.6939C185.149 61.4931 185.71 61.3853 186.284 61.3726L186.284 61.3726ZM184.46 61.8921L186.132 63.2588L184.458 63.5686C184.361 63.0063 184.361 62.4408 184.46 61.8921L184.46 61.8921ZM184.508 63.8184L186.39 63.4703L188.151 64.91L185.154 65.4652C184.851 64.9388 184.633 64.3827 184.508 63.8184L184.508 63.8184ZM190.311 62.8568L190.335 66.3638L188.574 64.9242L188.552 61.7812C189.174 62.0207 189.774 62.3628 190.323 62.8021C190.316 62.8179 190.31 62.8362 190.311 62.8567L190.311 62.8568ZM186.693 67.2043C186.674 67.2075 186.657 67.2164 186.642 67.2278C186.102 66.7761 185.649 66.2572 185.294 65.6988L188.41 65.1223L190.171 66.5619L186.693 67.2043ZM186.892 67.4264L190.428 66.7717L191.989 68.047C190.114 68.8068 188.441 68.6024 186.892 67.4263L186.892 67.4264ZM192.155 67.8502L190.595 66.5735L190.57 63.0066C192.029 64.2899 192.55 65.8784 192.155 67.8503L192.155 67.8502ZM188.295 61.689C188.294 61.6895 188.294 61.6895 188.295 61.6904L188.316 64.7126L186.554 63.2721L186.541 61.3744C187.124 61.3888 187.716 61.4946 188.295 61.689L188.295 61.689Z" fill="#1D1F22"/>
<path opacity="0.3" d="M153.415 77.494C153.42 77.498 153.425 77.5041 153.43 77.5066C153.432 77.5074 153.432 77.5088 153.434 77.5097C153.436 77.5106 153.438 77.5107 153.438 77.5115C153.444 77.5133 153.449 77.5152 153.456 77.5178C153.462 77.5197 153.469 77.5231 153.476 77.5237C153.481 77.524 153.483 77.5242 153.487 77.5252C153.488 77.5253 153.49 77.5268 153.49 77.5262C154.191 77.5567 154.892 77.4275 155.559 77.1665C155.563 77.1654 155.568 77.1657 155.571 77.1639C155.576 77.1621 155.581 77.1582 155.586 77.1551C156.894 76.6359 158.065 75.6029 158.828 74.2182C159.883 72.302 159.785 70.3775 158.543 68.496L159.477 66.8018C159.51 66.7405 159.488 66.6614 159.426 66.6268C159.378 66.5995 159.32 66.6071 159.281 66.641C159.269 66.6507 159.261 66.6621 159.253 66.6757L158.32 68.37C156.824 68.3207 155.579 68.7191 154.605 69.564C154.123 69.9821 153.707 70.5084 153.358 71.1421C152.201 73.2427 152.215 75.7257 153.391 77.4681C153.393 77.4696 153.394 77.4697 153.395 77.4719L153.401 77.4795C153.404 77.4854 153.41 77.4894 153.415 77.4941L153.415 77.494ZM152.872 75.5696L154.53 75.2524L153.488 77.144C153.195 76.664 152.988 76.1317 152.872 75.5696L152.872 75.5696ZM153.713 77.2695L154.754 75.3779L155.362 76.968C154.826 77.1654 154.27 77.2676 153.713 77.2695L153.713 77.2695ZM155.598 76.8735L154.915 75.0859L156.012 73.0927L157.101 75.9401C156.638 76.3335 156.131 76.6482 155.598 76.8736L155.598 76.8735ZM153.602 71.3406L157.047 70.6815L155.95 72.6746L152.863 73.2651C152.986 72.6102 153.213 71.9578 153.546 71.3385C153.563 71.3426 153.582 71.3448 153.602 71.3407L153.602 71.3406ZM158.533 74.1114C158.539 74.1297 158.551 74.1448 158.565 74.158C158.219 74.7706 157.79 75.3101 157.305 75.76L156.174 72.8001L157.271 70.807L158.533 74.1114ZM158.715 73.8758L157.431 70.5162L158.403 68.7505C159.49 70.4575 159.591 72.1394 158.715 73.8758L158.715 73.8758ZM158.179 68.623L157.206 70.3887L153.703 71.0588C154.701 69.3917 156.168 68.5911 158.179 68.623L158.179 68.623ZM152.819 73.5343C152.819 73.5351 152.819 73.5351 152.82 73.5344L155.788 72.9667L154.691 74.9605L152.827 75.3163C152.735 74.7405 152.732 74.1389 152.819 73.5344L152.819 73.5343Z" fill="#1D1F22"/>
</svg>
